<?xml version="1.0" encoding="UTF-8"?>
<svg width="44px" height="32px" viewBox="0 0 44 32" version="1.1" xmlns="http://www.w3.org/2000/svg" xmlns:xlink="http://www.w3.org/1999/xlink">
    <!-- Generator: Sketch 53 (72520) - https://sketchapp.com -->
    <title>paint-brush</title>
    <desc>Created with Sketch.</desc>
    <g id="Page-1" stroke="none" stroke-width="1" fill="none" fill-rule="evenodd" fill-opacity="0.7" opacity="0.4">
        <g id="Desktop" transform="translate(-1716.000000, -60.000000)" fill="#000000" fill-rule="nonzero">
            <g id="Group-9" transform="translate(1716.000000, 60.000000)">
                <g id="paint-brush">
                    <path d="M41.5271075,24.6460677 C40.5290569,26.4256026 39.0319808,27.5060362 37.2022342,27.8873653 C35.2061329,28.3322483 33.0436767,27.8238105 31.8793103,27.124707 C29.301014,25.7265012 23.8949048,24.5825138 20.3185695,27.6331469 C18.8214935,28.904245 16.7422225,29.4126818 14.8292908,28.9677988 C14.1639224,28.840689 13.4985578,29.0949086 13.2490452,29.6033464 C13.0827032,30.1117862 13.4153871,30.6202231 14.0807528,30.8108876 C14.7461212,30.9379974 15.4946592,31.0651069 16.1600237,31.0651069 C18.3224682,31.0651069 20.484897,30.3660025 22.1483278,28.9677967 C24.5602849,26.9975972 28.4693025,27.6331448 30.4654038,28.7135774 C32.1288229,29.6669002 35.1229867,30.3024478 37.950784,29.7304541 C39.7805071,29.349116 42.2756339,28.2687034 43.9390647,25.4087349 C44.1054066,24.9002951 43.8558939,24.3283014 43.1905266,24.1376368 C42.5251582,23.9469633 41.8597937,24.1376279 41.5271075,24.6460677 Z M14.8875762,19.9610136 L23.6205458,5.15660819 C24.1195712,4.32490058 24.2027407,3.41001949 24.0364016,2.4951384 C23.7868889,1.58025731 23.204694,0.831719298 22.3729825,0.415867446 C21.541271,1.55945419e-05 20.6263938,-0.0831578947 19.7946862,0.0831840156 C18.9629786,0.332696686 18.2144405,0.914891618 17.7154152,1.66342963 L8.73294347,16.8005068 C7.40221053,17.2163626 6.23781676,17.7985575 5.40610916,18.7134386 C4.2417154,19.9610136 3.57634698,21.6244444 3.49317739,23.7868616 C3.32683548,24.7849123 2.82780897,25.5334503 1.99610136,26.1156452 C1.41390643,26.531501 0.831707602,26.6978402 0.748538012,26.6978402 L-3.55271368e-15,26.8641821 L0.582194932,27.2800378 C2.49512671,28.4444444 4.49122807,29.1098246 6.40417154,29.1098246 C7.06953996,29.1098246 7.73490448,29.0266538 8.4002729,28.8603119 C8.48344366,28.8603119 8.64978558,28.7771411 8.73295634,28.7771411 C9.98051969,28.4444577 11.228083,27.7790904 12.3924768,26.9473828 C13.7232097,25.8661626 14.3885782,24.9512815 14.5549212,24.6185992 C15.3034308,23.2046901 15.3866004,21.6244444 14.8875762,19.9610136 Z M19.9610136,3.07730994 C20.0441844,2.91096803 20.2105263,2.74462651 20.460039,2.66145419 C20.6263809,2.57828343 20.8758947,2.66145419 21.0422339,2.74462495 C21.2085758,2.82779571 21.3749173,2.99413762 21.3749173,3.24365029 C21.4580881,3.4099922 21.3749173,3.65950604 21.2917466,3.82584522 L15.8024561,12.891501 L14.4717232,12.142963 L19.9610136,3.07730994 Z M13.2241715,14.3053801 L14.5549045,15.0539181 L13.3073411,17.3827018 L11.9766082,16.6341637 L13.2241715,14.3053801 Z M9.39831189,25.6998051 C8.31709162,26.282 6.65367251,26.9473684 5.0734386,26.5315127 C5.32295127,26.1156569 5.73880702,25.2839493 5.98831969,24.1195556 C6.1546616,22.2066238 6.98637037,20.7095478 8.4002768,19.7946823 C9.31515789,19.2124873 10.1468655,19.0461442 10.4795478,18.9629747 L12.2261365,19.9610253 C12.3093072,20.0441961 12.5588199,20.3768811 12.7251618,20.959076 C12.9746745,21.707614 12.8083326,22.5393216 12.309306,23.2878596 L12.3924768,23.3710304 L12.309306,23.2878596 C11.8934503,23.8700546 10.7290604,24.9512788 9.39832359,25.6998168 L9.39831189,25.6998051 Z" id="Shape"></path>
                </g>
            </g>
        </g>
    </g>
</svg>