<?xml version="1.0" encoding="UTF-8"?>
<svg width="29px" height="32px" viewBox="0 0 29 32" version="1.1" xmlns="http://www.w3.org/2000/svg" xmlns:xlink="http://www.w3.org/1999/xlink">
    <!-- Generator: Sketch 53 (72520) - https://sketchapp.com -->
    <title>shiren</title>
    <desc>Created with Sketch.</desc>
    <g id="Page-1" stroke="none" stroke-width="1" fill="none" fill-rule="evenodd" opacity="0.9" stroke-linecap="round" stroke-linejoin="round">
        <g id="Desktop" transform="translate(-1085.000000, -61.000000)" fill="#A6A6A6" fill-rule="nonzero" stroke="#A6A6A6">
            <g id="Group-5" transform="translate(1086.000000, 62.000000)">
                <g id="shiren">
                    <path d="M14.1926601,29.998171 L14.1412809,29.7282625 C14.0938728,29.4791867 14.0462204,29.2301415 13.9985373,28.9811268 C13.8970315,28.4507182 13.7920433,27.9022566 13.6913622,27.3619204 C13.056332,23.9545551 12.068979,20.6632358 10.7557564,17.5757225 C10.4611053,17.7169082 10.1635217,17.8565055 9.87400242,17.9922845 C9.06232206,18.3729849 8.22299713,18.7666982 7.43153854,19.2040318 C6.48774475,19.7256124 5.56683027,20.3406959 4.67624842,20.935527 C4.57779719,21.0012629 4.47937654,21.0670294 4.38095585,21.1326432 C3.72921672,21.5669527 3.08129588,22.036635 2.45472701,22.4908302 C2.27062355,22.6242571 2.0865506,22.757684 1.90205003,22.8905305 C1.89355812,22.8974951 1.87831543,22.9203133 1.8748026,22.9319515 C1.4100994,24.7897868 1.21286096,26.5053979 1.27202943,28.176075 C1.28097955,28.4287248 1.29267884,28.6782893 1.30505015,28.9425467 C1.31082343,29.0657405 1.31665779,29.1904617 1.3223089,29.3174433 L1.33684901,29.6443514 L0.110195075,29.7165327 L0.0118660299,28.5348126 L0.0118660299,26.7213613 L0.0172116716,26.6919145 C0.0208466866,26.6718455 0.0252148358,26.6517765 0.0296746269,26.631738 C0.0331874627,26.6159149 0.0379527164,26.5942881 0.0385941791,26.5866514 C0.0817563284,25.5120577 0.282324328,24.4543257 0.476294328,23.4313861 C0.507054597,23.2691233 0.537845433,23.1067994 0.568025343,22.9443534 C0.854459433,21.4028877 1.49333851,20.0047765 2.52122669,18.6701409 C3.13334707,17.8753527 3.81132561,17.0999615 4.54117203,16.3596987 C4.22300018,16.3287247 3.88720301,16.2688841 3.52599119,16.1791692 C2.08597027,15.8214397 1.13389842,14.9634509 0.696259373,13.629029 C0.281621821,12.3647419 0.240017552,11.0319084 0.572637881,9.66752057 C0.807326299,8.70484907 1.35551296,7.81912412 2.29780994,6.88012612 C2.40172899,6.77657364 2.50662549,6.67922209 2.61537087,6.58003776 C2.58067009,6.55615045 2.5462137,6.53360716 2.51172675,6.51274391 C1.69680845,6.02067107 1.52422099,5.0460254 1.70875212,4.34868039 C1.92874767,3.51708373 2.50726696,2.95179107 3.42818146,2.66844215 C3.82907313,2.54509558 4.25693728,2.48766824 4.77466913,2.48766824 C5.07429931,2.48766824 5.37622045,2.5074929 5.63207755,2.52688988 C6.14159239,2.56553113 6.66842707,2.60545537 7.19211549,2.65365767 C7.21530024,2.65579591 7.23769081,2.65686504 7.25864567,2.65686504 C7.40355806,2.65686504 7.50970699,2.61556624 7.62349251,2.40449024 C7.81407182,2.05088448 8.04280367,1.68893955 8.30333439,1.32870522 C8.758782,0.698928985 9.33742349,0.28801809 10.0231914,0.107366358 C10.1133645,0.0836012239 10.2026213,0.0640209552 10.288915,0.0450821493 C10.3268842,0.0367429552 10.3648535,0.028403791 10.4027616,0.0197591343 L10.4392952,0.0114199403 L11.1738152,0.0114199403 L11.2105626,0.0198813134 C11.3182694,0.0446544776 11.4295501,0.0684501791 11.5371958,0.091482209 C11.7830336,0.144022119 12.0372412,0.198364239 12.2878444,0.272256119 C13.1648941,0.530862388 13.9095861,0.953228209 14.5012709,1.52765427 C15.6410202,2.63419955 16.0098992,3.98673543 15.5976748,5.54768976 C15.223664,6.96409827 14.6509485,8.43374925 13.8096687,10.1298716 C14.462538,9.85599215 15.0535202,9.6688951 15.6323144,9.55110797 C15.8998708,9.49664364 16.1644031,9.46902964 16.4186107,9.46902964 C17.3598997,9.46902964 18.2123596,9.84414009 18.9523474,10.583853 C19.8554839,11.486684 20.4894144,12.6400876 20.8903672,14.1099218 C21.0612746,14.7366434 21.3403775,14.9590216 21.9568661,14.9597547 L21.9624255,14.9597547 C22.2782453,14.9597547 22.5884751,14.9282919 22.8845313,14.8662214 C23.2669729,14.786037 23.5962637,14.5476525 23.9523131,14.0932129 C24.4873648,13.4103469 24.7986332,12.6011408 25.0100146,11.9724337 C25.1292374,11.6178504 25.233187,11.2626868 25.343307,10.8867211 C25.3920897,10.7200596 25.4425524,10.5477471 25.4944203,10.3755873 L25.5810806,10.0879313 L26.7021049,10.3070105 L26.7021049,10.7322171 L26.6886339,10.7780368 C26.6595842,10.8768851 26.6307484,10.975764 26.6018514,11.0746428 C26.5400254,11.2865436 26.4760917,11.5055922 26.4111805,11.7212196 C26.1411498,12.6181246 25.7795104,13.6605834 25.1447856,14.592067 C24.5894816,15.4069547 23.976903,15.8803636 23.2168462,16.0818786 C22.850808,16.1789247 22.483212,16.2281045 22.1243217,16.2281045 C21.9009661,16.2281045 21.6771216,16.2089824 21.4590811,16.1712575 C20.5505684,16.0140655 19.941014,15.4374706 19.6963674,14.5038183 C19.4074285,13.4010607 18.9570516,12.4987185 18.3194555,11.7451375 C18.1847151,11.5858683 18.0310664,11.441017 17.8985559,11.3203585 C17.4589619,10.9200167 16.9717154,10.7254052 16.4088359,10.7254052 C16.1995927,10.7254052 15.9768785,10.753233 15.7469859,10.808125 C14.7120721,11.0552458 13.7282013,11.4727242 12.7482711,12.0813623 C12.9051577,12.186045 13.0563932,12.2847406 13.2134325,12.3717674 C14.2118128,12.9252386 14.9909917,13.7670073 15.5955061,14.9452451 C16.1655945,16.0563418 16.4727697,17.2968027 16.5346568,18.7375262 C16.5754668,19.6875209 16.7336669,20.4483414 17.032564,21.13191 C17.608273,22.4485538 18.6064395,23.2140479 20.0840936,23.4721654 C20.4601204,23.5378403 20.7937488,23.5697613 21.1041008,23.5697613 C21.5154699,23.5697613 21.8871591,23.5141362 22.2403678,23.3996787 C22.9621194,23.1657845 23.5838619,22.7540488 24.1411514,22.140951 C24.1634809,22.1164221 24.185566,22.0918323 24.2103697,22.0641877 L24.4554439,21.7918356 L25.434641,22.5235759 L25.2269557,22.7907046 C25.2134847,22.8079939 25.2012967,22.8243362 25.1897806,22.8397622 C25.1616779,22.8773344 25.1326282,22.9161894 25.0968889,22.9555333 C23.9709466,24.1952 22.6152033,24.8237544 21.067384,24.8237544 C20.8030655,24.8237544 20.5290027,24.8053043 20.2528628,24.7688929 C19.1784524,24.627249 18.3031132,24.3033955 17.5768713,23.7789129 C16.566364,23.049097 15.8976716,22.0122282 15.5326415,20.6090463 C15.3743192,20.000286 15.3279802,19.3833393 15.2831992,18.7866754 C15.2709195,18.6227937 15.2581816,18.453322 15.2433666,18.2880046 C15.0922227,16.6030011 14.548557,15.2789345 13.5812119,14.2401107 C13.3328387,13.9734096 13.0147584,13.7488932 12.7102714,13.5418188 C12.1711876,13.1752002 11.6183884,12.8077875 11.0837644,12.4524711 C10.4112231,12.0054849 9.715772,11.5432559 9.03843496,11.0765367 C7.447148,9.98007173 5.8407711,8.84997513 4.28730066,7.75705355 L3.67930403,7.32937266 C3.56680143,7.44355531 3.45234388,7.55618009 3.3410937,7.66565857 C3.06864988,7.93373424 2.811296,8.18693379 2.57724907,8.46365412 C1.85174024,9.321368 1.54395418,10.3900357 1.63632666,11.730689 C1.67160782,12.2429225 1.74055116,12.68551 1.84700555,13.0837136 C2.099472,14.027935 2.67777746,14.620689 3.61494266,14.8958514 C4.15323227,15.0538988 4.5900771,15.1275157 4.98968579,15.1275157 C5.26921639,15.1275157 5.52913615,15.0920513 5.78432122,15.0191369 C5.86603299,14.9957994 5.9524489,14.9618012 6.04390499,14.9258481 C6.09250439,14.906726 6.14205075,14.8872984 6.19321606,14.8683291 L6.42246719,14.7833794 L7.09644415,15.6588407 L6.87791481,15.8648766 C6.7565843,15.979273 6.63519269,16.0924782 6.51419818,16.2053473 C6.258616,16.4437013 5.99432809,16.6901807 5.74335842,16.9368433 C4.86762215,17.7973369 3.75322642,18.9621953 2.90171346,20.3435671 C2.81648887,20.4817898 2.73789284,20.6236475 2.66201543,20.7692014 C5.34857603,18.8434307 7.79919582,17.4465109 10.2766965,16.4250986 L9.11440394,13.7398515 L10.2138319,13.240417 L10.354254,13.5340295 C12.9767587,19.0170263 14.6061065,24.2457544 15.3354642,29.5190192 L15.3769157,29.8188021 L14.6099554,29.9983236 L14.1926601,29.9983237 L14.1926601,29.998171 Z M4.70386242,3.74569337 C4.22663516,3.74569337 3.85354078,3.81766081 3.52968728,3.97216478 C3.2129511,4.12327809 3.02490713,4.32784767 2.93794137,4.61587021 C2.8411091,4.93654687 2.91851382,5.2615917 3.12619916,5.40638188 C5.6514134,7.16674346 8.17733021,8.92612755 10.703247,10.6854811 L11.6245892,11.327201 C11.6729442,11.2636033 11.7230099,11.2061149 11.7715176,11.1503981 C11.8394529,11.072352 11.9036616,10.9986739 11.9453269,10.9270425 C13.0955536,8.95074803 13.898681,7.05946433 14.4005592,5.14511809 C14.6917891,4.0343574 14.3876686,3.08204116 13.4966591,2.31456149 C12.8568025,1.76338128 12.0697121,1.42788958 11.0904539,1.28887266 C10.9855573,1.273966 10.8824325,1.26642101 10.7839202,1.26642101 C10.2589794,1.26642101 9.82357021,1.47545039 9.45276681,1.90545284 C9.32813728,2.04999866 9.21160257,2.20563284 9.10646167,2.36804833 C8.97233218,2.57521439 8.8418683,2.79322442 8.71571143,3.00405603 C8.67022776,3.08002507 8.62477463,3.15599409 8.57898549,3.23174928 C8.32309785,3.65524531 7.91881552,3.88568776 7.40981997,3.89818125 C7.35288137,3.89955585 7.29423218,3.90028896 7.23558299,3.90028896 C7.04472875,3.90028896 6.84794848,3.89311054 6.63403167,3.87832606 C6.41134803,3.86293066 6.18655666,3.84359475 5.96918812,3.82486976 C5.64475424,3.7969503 5.30929307,3.76805334 4.98195728,3.75265794 C4.88219263,3.74798436 4.79119475,3.74569337 4.70386242,3.74569337 Z" id="Shape"></path>
                </g>
            </g>
        </g>
    </g>
</svg>