<?xml version="1.0" encoding="UTF-8"?>
<svg width="36px" height="28px" viewBox="0 0 36 28" version="1.1" xmlns="http://www.w3.org/2000/svg" xmlns:xlink="http://www.w3.org/1999/xlink">
    <!-- Generator: Sketch 53 (72520) - https://sketchapp.com -->
    <title>gushici</title>
    <desc>Created with Sketch.</desc>
    <g id="Page-1" stroke="none" stroke-width="1" fill="none" fill-rule="evenodd" opacity="0.35">
        <g id="Desktop" transform="translate(-1282.000000, -63.000000)" fill="#000000" fill-rule="nonzero">
            <g id="Group-6" transform="translate(1282.666667, 63.000000)">
                <g id="gushici" transform="translate(-0.000000, 0.000000)">
                    <path d="M30.7782946,0 C29.2111628,0 27.8697674,0.894263566 27.2576744,2.23565891 L7.46232558,2.23565891 C6.84589147,0.894263566 5.50449612,0 3.94170543,0 C1.76248062,0 0.0260465116,1.73209302 0.0260465116,3.91565891 L0.0260465116,24.0452713 C0.0260465116,26.2244961 1.75813953,27.9609302 3.94170543,27.9609302 C5.50883721,27.9609302 6.85023256,27.0666667 7.46232558,25.7252713 L27.2576744,25.7252713 C27.8697674,27.0623256 29.2111628,27.9565891 30.7782946,27.9565891 C32.9575194,27.9565891 34.6939535,26.2244961 34.6939535,24.0409302 L34.6939535,3.91565891 C34.6896124,1.73209302 32.9575194,0 30.7782946,0 Z M30.7782946,25.7209302 C29.8275969,25.7209302 29.1026357,24.995969 29.1026357,24.0452713 L29.1026357,3.91565891 C29.1026357,2.96496124 29.8275969,2.24 30.7782946,2.24 C31.7289922,2.24 32.4539535,2.96496124 32.4539535,3.91565891 L32.4539535,24.0452713 C32.4539535,24.9916279 31.7289922,25.7209302 30.7782946,25.7209302 Z M3.93736434,25.7209302 C2.98666667,25.7209302 2.26170543,24.995969 2.26170543,24.0452713 L2.26170543,3.91565891 C2.26170543,2.96496124 2.98666667,2.24 3.93736434,2.24 C4.88806202,2.24 5.61302326,2.96496124 5.61302326,3.91565891 L5.61302326,24.0452713 C5.61736434,24.9916279 4.88806202,25.7209302 3.93736434,25.7209302 L3.93736434,25.7209302 Z M7.85302326,23.4852713 L7.85302326,4.47131783 L26.8626357,4.47131783 L26.8626357,23.4852713 L7.85302326,23.4852713 Z" id="Shape"></path>
                    <path d="M20.1513178,19.0096124 C19.5348837,19.0096124 19.0313178,18.5060465 19.0313178,17.8896124 L19.0313178,10.0626357 C19.0313178,9.44620155 19.5348837,8.94263566 20.1513178,8.94263566 C20.7677519,8.94263566 21.2713178,9.44620155 21.2713178,10.0626357 L21.2713178,17.8896124 C21.2713178,18.5060465 20.7677519,19.0096124 20.1513178,19.0096124 Z M14.56,15.6539535 C13.9435659,15.6539535 13.44,15.1503876 13.44,14.5339535 L13.44,10.0626357 C13.44,9.44620155 13.9435659,8.94263566 14.56,8.94263566 C15.1764341,8.94263566 15.68,9.44620155 15.68,10.0626357 L15.68,14.5339535 C15.68,15.1503876 15.1764341,15.6539535 14.56,15.6539535 Z" id="Shape"></path>
                </g>
            </g>
        </g>
    </g>
</svg>