<?xml version="1.0" encoding="UTF-8"?>
<svg width="33px" height="28px" viewBox="0 0 33 28" version="1.1" xmlns="http://www.w3.org/2000/svg" xmlns:xlink="http://www.w3.org/1999/xlink">
    <!-- Generator: Sketch 53 (72520) - https://sketchapp.com -->
    <title>ciyun</title>
    <desc>Created with Sketch.</desc>
    <g id="Page-1" stroke="none" stroke-width="1" fill="none" fill-rule="evenodd" opacity="0.3">
        <g id="Desktop" transform="translate(-1488.000000, -63.000000)" fill="#000000" fill-rule="nonzero">
            <g id="Group-8" transform="translate(1488.333333, 60.000000)">
                <g id="ciyun" transform="translate(16.285124, 17.000000) scale(-1, 1) translate(-16.285124, -17.000000) translate(0.000000, 3.000000)">
                    <path d="M10.3379284,4.06333886 C9.61999998,4.06333886 8.94438566,4.23541598 8.36327274,4.58521211 C6.94293114,5.44277685 6.30398899,7.22278787 6.56633609,9.60224795 C6.62655862,10.1510833 6.33440883,10.6783091 5.83712396,10.9182149 C3.43650688,12.0747989 2.28979615,13.9013554 2.69177962,15.9267879 C3.08530027,17.9056749 5.05713499,19.9973995 8.06566392,20.1694766 C8.4201027,20.1881339 8.75142972,20.3511596 8.9824806,20.6205857 C9.21353148,20.8900118 9.32413781,21.2423202 9.28853994,21.5954601 C9.21096417,22.3810909 9.13338841,23.3021267 9.062865,24.1469972 L15.5129366,19.929697 C15.7242855,19.7901036 15.9719356,19.7155634 16.2252231,19.7153058 L16.230865,19.7153058 L25.8756474,19.7689036 C28.2452342,19.6208044 29.6444187,17.5304904 29.9053554,15.6517466 C30.2086061,13.4626997 29.1310083,10.6304793 25.1915702,9.24822037 C24.5321244,9.01812868 24.1721911,8.30822552 24.3763195,7.6402865 C24.8065124,6.22981817 23.7980275,4.21566941 22.175989,3.24667769 C20.9587548,2.52028651 18.4438898,1.78402205 15.2534105,4.99706888 C14.8115974,5.43998442 14.1177617,5.50741602 13.5989311,5.15786227 C12.5326171,4.43429202 11.3887273,4.06333886 10.3379284,4.06333886 M7.56494767,27.9848815 C7.20351358,27.9858703 6.85804438,27.8360703 6.61173579,27.5715563 C6.3654272,27.3070423 6.24060065,26.9517855 6.2673168,26.5913388 C6.2673168,26.5913388 6.41259503,24.5151295 6.58185124,22.5898402 C3.35469973,21.9043526 0.742512388,19.4769366 0.138831955,16.4345565 C-0.45356474,13.4528264 0.949851231,10.7249807 3.91324517,8.99292563 C3.81169146,6.01119559 4.91890908,3.62045181 7.0190964,2.35526171 C9.07414874,1.11546007 11.734292,1.17328926 14.1560661,2.45963637 C17.1772893,-0.163834711 20.6174215,-0.71391736 23.510292,1.01108541 C25.8093554,2.38347107 27.1958457,4.8842314 27.0759559,7.19739945 C31.6599779,9.24963084 32.882854,13.1495758 32.4851019,16.0100055 C31.9928485,19.550281 29.3044959,22.1652892 25.9475813,22.3712176 L16.610281,22.3218512 L8.27723417,27.7719008 C8.06533092,27.909973 7.81786445,27.9834778 7.56494767,27.9834711" id="Shape"></path>
                    <path d="M22.9700826,11.4443196 L9.55652892,11.4443196 C8.83753025,11.4443196 8.25466667,10.861456 8.25466667,10.1424573 C8.25466667,9.42345863 8.83753025,8.84059504 9.55652892,8.84059504 L22.9700826,8.84059504 C23.6890813,8.84059504 24.2719449,9.42345863 24.2719449,10.1424573 C24.2719449,10.861456 23.6890813,11.4443196 22.9700826,11.4443196 M22.9700826,16.5586777 L12.6242975,16.5586777 C11.9052989,16.5586777 11.3224353,15.9758141 11.3224353,15.2568154 C11.3224353,14.5378168 11.9052989,13.9549532 12.6242975,13.9549532 L22.9700826,13.9549532 C23.6894708,13.9549532 24.2726501,14.5381325 24.2726501,15.2575207 C24.2726501,15.9769088 23.6894708,16.5600882 22.9700826,16.5600882" id="Shape"></path>
                </g>
            </g>
        </g>
    </g>
</svg>