<?xml version="1.0" encoding="UTF-8"?>
<svg width="77px" height="66px" viewBox="0 0 77 66" version="1.1" xmlns="http://www.w3.org/2000/svg" xmlns:xlink="http://www.w3.org/1999/xlink">
    <!-- Generator: Sketch 53 (72520) - https://sketchapp.com -->
    <title>maobiyantai-</title>
    <desc>Created with Sketch.</desc>
    <g id="Page-1" stroke="none" stroke-width="1" fill="none" fill-rule="evenodd">
        <g id="Desktop" transform="translate(-1556.000000, -517.000000)" fill="#676767" fill-rule="nonzero">
            <g id="maobiyantai-" transform="translate(1592.718426, 567.234851) rotate(-13.000000) translate(-1592.718426, -567.234851) translate(1542.218426, 526.734851)">
                <path d="M12.4512483,43.4157098 L12.3120025,43.3921106 C12.3120025,43.3921106 19.2646204,49.7855935 28.1402477,51.2959454 C28.912546,51.4273358 29.69258,51.5096142 30.4867965,51.5619152 C32.2757176,51.6741711 34.1181452,51.576585 35.992161,51.1594524 C37.6454261,50.7891756 39.2405503,50.1996025 40.7342525,49.4067299 C41.8327468,48.8244025 44.2579436,46.7872133 45.4421771,45.0306638 L40.3229618,37.8622327 C40.3068454,37.8590436 28.3226855,46.1155915 12.4512483,43.4157098 L12.4512483,43.4157098 Z M39.4752387,47.0761446 C36.1881364,48.8167486 32.5264888,49.3646339 28.6011769,48.6974768 C26.1701782,48.2841711 23.8810038,47.4505436 21.8735442,46.4989198 C30.0213547,45.9274353 36.3621936,43.100628 39.5680693,41.3797963 L42.0912539,44.9120298 C41.1158889,45.9000091 39.9780706,46.8101747 39.4752387,47.0761446 L39.4752387,47.0761446 Z M94.3155021,2.49397526 C94.3155021,2.49397526 75.1698558,16.591656 71.3341511,19.2673006 C67.5042483,21.9448585 56.9538039,27.9696829 49.7156034,31.2461515 C42.4703117,34.5130529 42.0474172,36.6076456 42.0474172,36.6076456 L44.6099259,40.1966448 L47.1724346,43.785644 C47.1724346,43.785644 49.3010895,44.0886073 54.8412654,38.4241499 C60.3749947,32.757779 69.6354819,24.9413252 73.4750546,22.2656807 C77.3049574,19.5893984 97.1300714,6.43568747 97.1300714,6.43568757 L95.7227867,4.46483136 L94.3155021,2.49397526 Z M100.500979,2.89388681 L99.6435862,1.70244373 L98.7945739,0.504622402 L97.5832647,1.35228187 L96.971486,0.487401296 L95.7614661,1.3267692 L97.2293485,3.39074675 L98.7043219,5.44898382 L99.9098292,4.59941093 L99.2883805,3.7409085 L100.500979,2.89388681 Z" id="Shape"></path>
            </g>
        </g>
    </g>
</svg>